<?xml version="1.0" standalone="no"?>
<!DOCTYPE svg PUBLIC "-//W3C//DTD SVG 20010904//EN"
 "http://www.w3.org/TR/2001/REC-SVG-20010904/DTD/svg10.dtd">
<svg version="1.0" xmlns="http://www.w3.org/2000/svg"
 width="586.000000pt" height="541.000000pt" viewBox="0 0 586.000000 541.000000"
 preserveAspectRatio="xMidYMid meet">

<g transform="translate(0.000000,541.000000) scale(0.100000,-0.100000)"
fill="#000000" stroke="none">
<path d="M5 2705 l0 -2705 2928 0 2927 0 0 2705 0 2705 -2927 0 -2928 0 0
-2705z m3264 2215 c243 -45 435 -109 636 -210 171 -86 228 -122 375 -234 421
-323 712 -790 829 -1329 10 -48 16 -89 12 -91 -7 -5 -128 -9 -218 -7 l-62 1
-11 43 c-71 283 -141 454 -274 662 -211 331 -543 610 -906 762 -238 99 -471
143 -765 144 -326 0 -608 -66 -888 -208 -192 -98 -325 -193 -481 -343 -758
-729 -818 -1891 -140 -2699 394 -471 1020 -735 1634 -691 505 36 948 240 1298
598 l94 95 158 5 c87 2 166 0 174 -5 14 -8 12 -15 -16 -53 -18 -25 -67 -85
-109 -135 -319 -372 -742 -629 -1214 -739 -238 -55 -543 -71 -790 -41 -676 82
-1277 468 -1652 1060 -159 251 -272 581 -315 915 -15 120 -15 416 1 540 30
236 122 545 221 739 333 653 929 1093 1650 1220 144 25 214 30 425 26 171 -2
246 -8 334 -25z m-985 -722 c2 -13 23 -158 47 -323 106 -748 133 -910 151
-913 12 -2 32 19 65 70 26 40 51 75 54 78 3 3 99 147 212 320 113 173 213 325
222 338 15 20 24 22 120 22 57 0 107 -4 110 -10 3 -5 33 -182 66 -392 33 -211
62 -393 64 -405 l5 -23 356 0 c275 0 356 -3 359 -12 3 -7 27 -164 55 -348 64
-427 60 -400 68 -400 4 1 32 37 62 81 30 44 69 99 86 122 17 23 113 158 213
300 l183 257 299 0 c344 0 312 13 276 -115 l-23 -80 -78 -5 c-59 -4 -81 -9
-91 -23 -11 -16 -57 -197 -205 -810 -27 -114 -50 -214 -50 -222 0 -12 16 -15
75 -15 87 0 85 4 57 -115 l-17 -70 -393 -3 c-369 -2 -392 -1 -392 15 1 26 34
156 43 171 6 8 37 12 97 12 l88 0 27 113 c44 181 115 510 112 514 -3 2 -82
-117 -261 -395 -39 -59 -117 -179 -175 -267 l-106 -160 -72 -3 c-40 -2 -73 -1
-73 2 0 20 -132 766 -139 781 -6 15 -13 -3 -30 -75 -13 -52 -45 -186 -72 -297
-27 -111 -49 -206 -49 -212 0 -7 27 -11 74 -11 41 0 77 -4 80 -8 5 -8 -35
-166 -44 -176 -8 -8 -587 -12 -595 -4 -7 7 21 140 36 169 6 12 29 18 86 23 42
3 83 12 91 19 13 14 162 597 155 610 -2 4 -152 7 -334 7 -376 0 -339 -12 -315
103 20 92 25 97 107 97 l69 0 -1 38 c0 20 -6 69 -12 107 l-12 70 -193 3 -192
2 -56 -87 c-31 -47 -60 -97 -65 -110 -8 -23 -7 -23 54 -23 94 0 96 -3 70 -106
-13 -48 -24 -88 -25 -89 -2 -1 -122 -5 -267 -8 l-263 -5 7 71 c9 102 19 118
82 132 28 7 63 19 76 28 21 13 117 171 117 191 0 3 -112 6 -250 6 -206 0 -250
2 -250 14 0 27 33 161 43 174 6 7 34 12 71 12 90 0 91 2 76 101 -6 46 -14 92
-17 102 -4 15 -22 17 -193 17 l-189 0 -44 -62 c-48 -68 -77 -123 -77 -145 0
-10 18 -13 71 -13 l72 0 -7 -32 c-3 -17 -15 -62 -27 -100 l-20 -68 -264 0
-265 0 1 28 c0 15 6 56 13 92 13 70 15 72 96 85 19 3 44 13 55 23 19 16 178
253 325 487 35 55 95 150 135 210 39 61 134 208 210 327 l140 218 107 0 c104
0 108 -1 112 -22z"/>
<path d="M1925 3599 c-38 -59 -135 -219 -135 -224 0 -8 199 -5 203 3 5 8 -29
251 -36 258 -2 2 -16 -14 -32 -37z"/>
<path d="M2866 3106 c-42 -64 -79 -122 -82 -131 -5 -13 9 -15 95 -15 l101 0 0
25 c0 30 -29 227 -34 233 -2 2 -38 -49 -80 -112z"/>
<path d="M3440 2733 c0 -19 16 -128 26 -175 5 -26 9 -28 58 -28 l53 0 26 99
c15 55 27 104 27 110 0 7 -34 11 -95 11 -84 0 -95 -2 -95 -17z"/>
</g>
</svg>
